<mxfile host="app.diagrams.net" agent="Mozilla/5.0 (Macintosh; Intel Mac OS X 10_15_7) AppleWebKit/537.36 (KHTML, like Gecko) Chrome/129.0.0.0 Safari/537.36 Edg/129.0.0.0" version="24.7.17">
  <diagram name="ERD" id="rGgOu-BAKM6de4e7C1ct">
    <mxGraphModel dx="1336" dy="625" grid="0" gridSize="10" guides="1" tooltips="1" connect="1" arrows="1" fold="1" page="1" pageScale="1" pageWidth="1169" pageHeight="827" math="0" shadow="0">
      <root>
        <mxCell id="0" />
        <mxCell id="1" parent="0" />
        <mxCell id="pLeDZ3M_WQCKM6x-BAhu-1" value="User" style="swimlane;fontStyle=0;childLayout=stackLayout;horizontal=1;startSize=30;horizontalStack=0;resizeParent=1;resizeParentMax=0;resizeLast=0;collapsible=1;marginBottom=0;whiteSpace=wrap;html=1;" parent="1" vertex="1">
          <mxGeometry x="117" y="104" width="138" height="245" as="geometry">
            <mxRectangle x="167" y="112" width="60" height="30" as="alternateBounds" />
          </mxGeometry>
        </mxCell>
        <mxCell id="pLeDZ3M_WQCKM6x-BAhu-2" value="userID" style="text;strokeColor=none;fillColor=none;align=left;verticalAlign=middle;spacingLeft=4;spacingRight=4;overflow=hidden;points=[[0,0.5],[1,0.5]];portConstraint=eastwest;rotatable=0;whiteSpace=wrap;html=1;" parent="pLeDZ3M_WQCKM6x-BAhu-1" vertex="1">
          <mxGeometry y="30" width="138" height="30" as="geometry" />
        </mxCell>
        <mxCell id="pLeDZ3M_WQCKM6x-BAhu-3" value="username" style="text;strokeColor=none;fillColor=none;align=left;verticalAlign=middle;spacingLeft=4;spacingRight=4;overflow=hidden;points=[[0,0.5],[1,0.5]];portConstraint=eastwest;rotatable=0;whiteSpace=wrap;html=1;" parent="pLeDZ3M_WQCKM6x-BAhu-1" vertex="1">
          <mxGeometry y="60" width="138" height="30" as="geometry" />
        </mxCell>
        <mxCell id="pLeDZ3M_WQCKM6x-BAhu-4" value="password" style="text;strokeColor=none;fillColor=none;align=left;verticalAlign=middle;spacingLeft=4;spacingRight=4;overflow=hidden;points=[[0,0.5],[1,0.5]];portConstraint=eastwest;rotatable=0;whiteSpace=wrap;html=1;" parent="pLeDZ3M_WQCKM6x-BAhu-1" vertex="1">
          <mxGeometry y="90" width="138" height="31" as="geometry" />
        </mxCell>
        <mxCell id="_jU5eGJ0QTAcmd64MMdp-6" value="firstName" style="text;strokeColor=none;fillColor=none;align=left;verticalAlign=middle;spacingLeft=4;spacingRight=4;overflow=hidden;points=[[0,0.5],[1,0.5]];portConstraint=eastwest;rotatable=0;whiteSpace=wrap;html=1;" vertex="1" parent="pLeDZ3M_WQCKM6x-BAhu-1">
          <mxGeometry y="121" width="138" height="31" as="geometry" />
        </mxCell>
        <mxCell id="_jU5eGJ0QTAcmd64MMdp-7" value="lastName" style="text;strokeColor=none;fillColor=none;align=left;verticalAlign=middle;spacingLeft=4;spacingRight=4;overflow=hidden;points=[[0,0.5],[1,0.5]];portConstraint=eastwest;rotatable=0;whiteSpace=wrap;html=1;" vertex="1" parent="pLeDZ3M_WQCKM6x-BAhu-1">
          <mxGeometry y="152" width="138" height="31" as="geometry" />
        </mxCell>
        <mxCell id="_jU5eGJ0QTAcmd64MMdp-10" value="userEmail" style="text;strokeColor=none;fillColor=none;align=left;verticalAlign=middle;spacingLeft=4;spacingRight=4;overflow=hidden;points=[[0,0.5],[1,0.5]];portConstraint=eastwest;rotatable=0;whiteSpace=wrap;html=1;" vertex="1" parent="pLeDZ3M_WQCKM6x-BAhu-1">
          <mxGeometry y="183" width="138" height="31" as="geometry" />
        </mxCell>
        <mxCell id="_jU5eGJ0QTAcmd64MMdp-11" value="createDate" style="text;strokeColor=none;fillColor=none;align=left;verticalAlign=middle;spacingLeft=4;spacingRight=4;overflow=hidden;points=[[0,0.5],[1,0.5]];portConstraint=eastwest;rotatable=0;whiteSpace=wrap;html=1;" vertex="1" parent="pLeDZ3M_WQCKM6x-BAhu-1">
          <mxGeometry y="214" width="138" height="31" as="geometry" />
        </mxCell>
        <mxCell id="pLeDZ3M_WQCKM6x-BAhu-5" value="&lt;font style=&quot;font-size: 20px;&quot;&gt;Mr. Andaman ERD&lt;/font&gt;" style="text;html=1;align=center;verticalAlign=middle;whiteSpace=wrap;rounded=0;fontStyle=1" parent="1" vertex="1">
          <mxGeometry x="499" y="17" width="220" height="30" as="geometry" />
        </mxCell>
        <mxCell id="pLeDZ3M_WQCKM6x-BAhu-6" value="Place" style="swimlane;fontStyle=0;childLayout=stackLayout;horizontal=1;startSize=30;horizontalStack=0;resizeParent=1;resizeParentMax=0;resizeLast=0;collapsible=1;marginBottom=0;whiteSpace=wrap;html=1;" parent="1" vertex="1">
          <mxGeometry x="534" y="377" width="150" height="90" as="geometry" />
        </mxCell>
        <mxCell id="pLeDZ3M_WQCKM6x-BAhu-8" value="Item 2" style="text;strokeColor=none;fillColor=none;align=left;verticalAlign=middle;spacingLeft=4;spacingRight=4;overflow=hidden;points=[[0,0.5],[1,0.5]];portConstraint=eastwest;rotatable=0;whiteSpace=wrap;html=1;" parent="pLeDZ3M_WQCKM6x-BAhu-6" vertex="1">
          <mxGeometry y="30" width="150" height="30" as="geometry" />
        </mxCell>
        <mxCell id="pLeDZ3M_WQCKM6x-BAhu-9" value="Item 3" style="text;strokeColor=none;fillColor=none;align=left;verticalAlign=middle;spacingLeft=4;spacingRight=4;overflow=hidden;points=[[0,0.5],[1,0.5]];portConstraint=eastwest;rotatable=0;whiteSpace=wrap;html=1;" parent="pLeDZ3M_WQCKM6x-BAhu-6" vertex="1">
          <mxGeometry y="60" width="150" height="30" as="geometry" />
        </mxCell>
        <mxCell id="0_EKT-ybR4EFq_SflwD--1" style="edgeStyle=orthogonalEdgeStyle;rounded=0;orthogonalLoop=1;jettySize=auto;html=1;exitX=1;exitY=0.5;exitDx=0;exitDy=0;" parent="pLeDZ3M_WQCKM6x-BAhu-6" source="pLeDZ3M_WQCKM6x-BAhu-9" target="pLeDZ3M_WQCKM6x-BAhu-9" edge="1">
          <mxGeometry relative="1" as="geometry" />
        </mxCell>
        <mxCell id="0_EKT-ybR4EFq_SflwD--2" value="Acitivity" style="swimlane;fontStyle=0;childLayout=stackLayout;horizontal=1;startSize=30;horizontalStack=0;resizeParent=1;resizeParentMax=0;resizeLast=0;collapsible=1;marginBottom=0;whiteSpace=wrap;html=1;" parent="1" vertex="1">
          <mxGeometry x="368" y="548" width="150" height="96" as="geometry" />
        </mxCell>
        <mxCell id="0_EKT-ybR4EFq_SflwD--4" value="Item 2" style="text;strokeColor=none;fillColor=none;align=left;verticalAlign=middle;spacingLeft=4;spacingRight=4;overflow=hidden;points=[[0,0.5],[1,0.5]];portConstraint=eastwest;rotatable=0;whiteSpace=wrap;html=1;" parent="0_EKT-ybR4EFq_SflwD--2" vertex="1">
          <mxGeometry y="30" width="150" height="36" as="geometry" />
        </mxCell>
        <mxCell id="0_EKT-ybR4EFq_SflwD--5" value="Item 3" style="text;strokeColor=none;fillColor=none;align=left;verticalAlign=middle;spacingLeft=4;spacingRight=4;overflow=hidden;points=[[0,0.5],[1,0.5]];portConstraint=eastwest;rotatable=0;whiteSpace=wrap;html=1;" parent="0_EKT-ybR4EFq_SflwD--2" vertex="1">
          <mxGeometry y="66" width="150" height="30" as="geometry" />
        </mxCell>
        <mxCell id="0_EKT-ybR4EFq_SflwD--6" style="edgeStyle=orthogonalEdgeStyle;rounded=0;orthogonalLoop=1;jettySize=auto;html=1;exitX=1;exitY=0.5;exitDx=0;exitDy=0;" parent="0_EKT-ybR4EFq_SflwD--2" source="0_EKT-ybR4EFq_SflwD--5" target="0_EKT-ybR4EFq_SflwD--5" edge="1">
          <mxGeometry relative="1" as="geometry" />
        </mxCell>
        <mxCell id="0_EKT-ybR4EFq_SflwD--7" value="Booking" style="swimlane;fontStyle=0;childLayout=stackLayout;horizontal=1;startSize=30;horizontalStack=0;resizeParent=1;resizeParentMax=0;resizeLast=0;collapsible=1;marginBottom=0;whiteSpace=wrap;html=1;" parent="1" vertex="1">
          <mxGeometry x="207" y="408" width="150" height="90" as="geometry" />
        </mxCell>
        <mxCell id="0_EKT-ybR4EFq_SflwD--8" value="Item 2" style="text;strokeColor=none;fillColor=none;align=left;verticalAlign=middle;spacingLeft=4;spacingRight=4;overflow=hidden;points=[[0,0.5],[1,0.5]];portConstraint=eastwest;rotatable=0;whiteSpace=wrap;html=1;" parent="0_EKT-ybR4EFq_SflwD--7" vertex="1">
          <mxGeometry y="30" width="150" height="30" as="geometry" />
        </mxCell>
        <mxCell id="0_EKT-ybR4EFq_SflwD--9" value="Item 3" style="text;strokeColor=none;fillColor=none;align=left;verticalAlign=middle;spacingLeft=4;spacingRight=4;overflow=hidden;points=[[0,0.5],[1,0.5]];portConstraint=eastwest;rotatable=0;whiteSpace=wrap;html=1;" parent="0_EKT-ybR4EFq_SflwD--7" vertex="1">
          <mxGeometry y="60" width="150" height="30" as="geometry" />
        </mxCell>
        <mxCell id="0_EKT-ybR4EFq_SflwD--10" style="edgeStyle=orthogonalEdgeStyle;rounded=0;orthogonalLoop=1;jettySize=auto;html=1;exitX=1;exitY=0.5;exitDx=0;exitDy=0;" parent="0_EKT-ybR4EFq_SflwD--7" source="0_EKT-ybR4EFq_SflwD--9" target="0_EKT-ybR4EFq_SflwD--9" edge="1">
          <mxGeometry relative="1" as="geometry" />
        </mxCell>
        <mxCell id="0_EKT-ybR4EFq_SflwD--11" value="Review" style="swimlane;fontStyle=0;childLayout=stackLayout;horizontal=1;startSize=30;horizontalStack=0;resizeParent=1;resizeParentMax=0;resizeLast=0;collapsible=1;marginBottom=0;whiteSpace=wrap;html=1;" parent="1" vertex="1">
          <mxGeometry x="409" y="99" width="150" height="120" as="geometry" />
        </mxCell>
        <mxCell id="0_EKT-ybR4EFq_SflwD--12" value="placeID" style="text;strokeColor=none;fillColor=none;align=left;verticalAlign=middle;spacingLeft=4;spacingRight=4;overflow=hidden;points=[[0,0.5],[1,0.5]];portConstraint=eastwest;rotatable=0;whiteSpace=wrap;html=1;" parent="0_EKT-ybR4EFq_SflwD--11" vertex="1">
          <mxGeometry y="30" width="150" height="30" as="geometry" />
        </mxCell>
        <mxCell id="0_EKT-ybR4EFq_SflwD--13" value="Item 3" style="text;strokeColor=none;fillColor=none;align=left;verticalAlign=middle;spacingLeft=4;spacingRight=4;overflow=hidden;points=[[0,0.5],[1,0.5]];portConstraint=eastwest;rotatable=0;whiteSpace=wrap;html=1;" parent="0_EKT-ybR4EFq_SflwD--11" vertex="1">
          <mxGeometry y="60" width="150" height="30" as="geometry" />
        </mxCell>
        <mxCell id="_jU5eGJ0QTAcmd64MMdp-12" value="Item 3" style="text;strokeColor=none;fillColor=none;align=left;verticalAlign=middle;spacingLeft=4;spacingRight=4;overflow=hidden;points=[[0,0.5],[1,0.5]];portConstraint=eastwest;rotatable=0;whiteSpace=wrap;html=1;" vertex="1" parent="0_EKT-ybR4EFq_SflwD--11">
          <mxGeometry y="90" width="150" height="30" as="geometry" />
        </mxCell>
        <mxCell id="0_EKT-ybR4EFq_SflwD--14" style="edgeStyle=orthogonalEdgeStyle;rounded=0;orthogonalLoop=1;jettySize=auto;html=1;exitX=1;exitY=0.5;exitDx=0;exitDy=0;" parent="0_EKT-ybR4EFq_SflwD--11" source="0_EKT-ybR4EFq_SflwD--13" target="0_EKT-ybR4EFq_SflwD--13" edge="1">
          <mxGeometry relative="1" as="geometry" />
        </mxCell>
      </root>
    </mxGraphModel>
  </diagram>
</mxfile>
